<?xml version="1.0" standalone="no"?>
<!DOCTYPE svg PUBLIC "-//W3C//DTD SVG 20010904//EN"
 "http://www.w3.org/TR/2001/REC-SVG-20010904/DTD/svg10.dtd">
<svg version="1.0" xmlns="http://www.w3.org/2000/svg"
 width="60pt" height="30pt" viewBox="0 0 609.000000 469.000000"
 preserveAspectRatio="xMidYMid meet">

<g transform="translate(0.000000,469.000000) scale(0.100000,-0.100000)"
fill="#000000" stroke="none">
<path d="M775 4613 c-317 -45 -579 -294 -635 -603 -18 -96 -18 -3191 0 -3275
52 -255 230 -466 465 -554 143 -54 18 -51 2468 -51 2250 0 2273 0 2357 20 278
67 489 273 559 547 21 81 21 93 21 1672 0 1095 -3 1607 -11 1643 -57 283 -265
504 -549 584 -62 18 -163 19 -2355 20 -1259 1 -2303 -1 -2320 -3z m4062 -50
c-3 -10 -5 -4 -5 12 0 17 2 24 5 18 2 -7 2 -21 0 -30z m300 5 c-3 -7 -5 -2 -5
12 0 14 2 19 5 13 2 -7 2 -19 0 -25z m-1290 0 c-3 -8 -6 -5 -6 6 -1 11 2 17 5
13 3 -3 4 -12 1 -19z m73 0 c0 -19 -2 -20 -10 -8 -13 19 -13 30 0 30 6 0 10
-10 10 -22z m70 18 c0 -3 -4 -8 -10 -11 -5 -3 -10 -1 -10 4 0 6 5 11 10 11 6
0 10 -2 10 -4z m170 -17 c0 -5 -4 -9 -10 -9 -5 0 -10 7 -10 16 0 8 5 12 10 9
6 -3 10 -10 10 -16z m236 -6 c-7 -7 -26 7 -26 19 0 6 6 6 15 -2 9 -7 13 -15
11 -17z m817 7 c3 -11 1 -20 -4 -20 -5 0 -9 2 -9 4 0 2 -3 11 -6 20 -3 9 -2
16 4 16 5 0 12 -9 15 -20z m67 10 c0 -5 -2 -10 -4 -10 -3 0 -8 5 -11 10 -3 6
-1 10 4 10 6 0 11 -4 11 -10z m-1225 -10 c3 -5 1 -10 -4 -10 -6 0 -11 5 -11
10 0 6 2 10 4 10 3 0 8 -4 11 -10z m1255 0 c0 -5 -2 -10 -4 -10 -3 0 -8 5 -11
10 -3 6 -1 10 4 10 6 0 11 -4 11 -10z m-4610 -9 c0 -5 -9 -11 -20 -14 -11 -3
-20 -1 -20 3 0 5 8 11 18 13 9 3 18 5 20 6 1 0 2 -3 2 -8z m35 -1 c3 -5 1 -10
-4 -10 -6 0 -11 5 -11 10 0 6 2 10 4 10 3 0 8 -4 11 -10z m-95 -24 c0 -3 -4
-8 -10 -11 -5 -3 -10 -1 -10 4 0 6 5 11 10 11 6 0 10 -2 10 -4z m-65 -15 c3
-5 1 -12 -5 -16 -5 -3 -10 1 -10 9 0 18 6 21 15 7z m3230 -936 c303 0 613 4
691 8 179 10 179 9 141 -101 -14 -42 -27 -93 -29 -112 -2 -19 -7 -38 -12 -41
-5 -4 -11 -30 -14 -57 -8 -91 -71 -112 -105 -37 -26 55 -84 113 -121 120 -17
4 -46 13 -65 22 -25 11 -71 16 -172 17 -131 1 -138 0 -162 -22 l-25 -23 0
-687 c0 -716 0 -726 42 -767 26 -27 129 -67 194 -76 75 -11 69 -8 72 -34 5
-45 -10 -65 -49 -66 -30 0 -221 0 -818 1 l-72 0 -9 33 c-5 17 -7 37 -5 43 2 6
36 17 76 24 40 7 77 16 82 20 6 4 22 10 37 14 37 9 88 54 104 93 11 26 14 161
14 717 l0 684 -31 26 c-29 25 -33 26 -147 21 -97 -4 -157 -10 -192 -20 -3 -1
-21 -5 -40 -9 -66 -16 -128 -55 -164 -103 -20 -27 -40 -54 -46 -60 -15 -18
-55 -16 -73 2 -13 13 -14 21 -1 67 8 29 21 103 30 163 23 162 15 156 182 147
75 -4 385 -7 687 -7z m-1099 -29 c12 -51 2 -70 -43 -78 -92 -15 -148 -64 -168
-147 -7 -31 -11 -253 -10 -696 0 -699 -1 -682 51 -741 25 -28 93 -64 121 -64
40 0 53 -11 53 -44 0 -63 33 -58 -437 -57 l-322 1 -10 37 c-12 43 -1 63 34 63
35 0 107 34 137 65 16 15 33 45 39 67 14 55 13 1326 -2 1382 -6 22 -18 49 -27
60 -29 33 -90 66 -142 77 -53 11 -57 17 -39 68 l11 31 374 0 374 0 6 -24z
m-1302 -756 c213 -35 365 -246 326 -452 -34 -176 -178 -311 -349 -325 -82 -7
-184 11 -222 38 -15 10 -32 19 -37 19 -21 0 -115 116 -145 179 -28 58 -31 76
-31 151 0 70 4 96 27 150 49 116 173 221 284 240 68 11 81 11 147 0z m750
-1189 c13 -14 14 -21 3 -35 -11 -15 -15 -15 -42 -2 -40 19 -55 22 -87 13 -21
-6 -28 -14 -28 -32 0 -30 25 -57 78 -84 65 -33 102 -77 102 -120 0 -69 -55
-111 -144 -111 -69 0 -96 14 -96 50 0 35 11 37 55 10 60 -37 135 -23 135 25 0
19 -14 34 -62 66 -86 57 -128 99 -128 125 0 52 39 98 97 113 38 10 100 1 117
-18z m1581 -10 c56 -40 79 -90 79 -172 0 -58 -4 -72 -28 -103 -42 -56 -65 -73
-104 -82 -102 -21 -191 13 -229 87 -47 91 -39 172 25 241 68 72 179 84 257 29z
m-1351 22 c4 -4 -3 -15 -15 -24 -21 -15 -23 -26 -25 -127 -3 -132 10 -168 67
-188 31 -10 42 -9 77 6 53 24 64 61 60 195 -3 93 -5 101 -26 110 -37 16 -19
30 43 33 68 4 87 -8 51 -32 -25 -16 -26 -19 -26 -128 0 -133 -19 -186 -74
-212 -45 -21 -122 -20 -166 2 -57 28 -75 77 -76 204 0 97 -3 110 -22 131 -12
13 -19 27 -15 30 9 9 138 9 147 0z m552 -15 c66 -39 82 -108 38 -165 -32 -42
-63 -54 -132 -54 l-53 0 3 -52 c3 -46 6 -53 32 -66 42 -20 16 -30 -72 -29 -72
1 -95 9 -69 25 28 16 35 51 36 176 1 124 0 129 -24 151 -14 13 -22 25 -19 28
3 3 55 6 115 6 94 0 116 -3 145 -20z m346 11 c20 -5 48 -23 63 -41 23 -27 26
-39 22 -76 -8 -75 -84 -126 -177 -119 -22 2 -25 -2 -28 -35 -4 -46 12 -78 38
-78 11 0 20 -6 20 -14 0 -12 -17 -14 -87 -12 -49 2 -90 4 -92 5 -2 0 8 12 23
26 26 24 26 25 26 164 0 139 0 141 -25 157 -14 9 -23 19 -21 23 7 10 198 11
238 0z m869 -27 c20 -22 29 -43 29 -66 0 -37 -32 -86 -57 -86 -8 0 -13 -4 -11
-9 4 -11 85 -108 125 -149 19 -20 27 -34 20 -37 -7 -2 -19 -5 -27 -8 -27 -8
-68 22 -115 83 -52 68 -80 90 -112 90 -21 0 -23 -4 -23 -55 0 -52 2 -57 30
-73 16 -9 28 -21 27 -27 -5 -14 -155 -17 -164 -3 -3 7 -1 14 5 16 36 12 41 30
39 172 -2 132 -3 140 -24 155 -13 9 -23 20 -23 25 0 5 57 8 126 7 l126 -2 29
-33z m501 32 c6 -6 -7 -62 -17 -72 -3 -3 -13 2 -23 12 -11 9 -36 17 -58 19
l-39 2 -3 -152 -3 -151 31 -7 c33 -7 39 -21 13 -28 -38 -11 -176 -2 -180 11
-3 7 5 12 21 12 40 0 47 26 44 177 l-3 138 -44 -2 c-23 -1 -51 -9 -60 -17 -29
-27 -43 -20 -36 17 4 17 9 35 12 40 5 8 337 10 345 1z m978 -1348 c0 -3 -4 -8
-10 -11 -5 -3 -10 -1 -10 4 0 6 5 11 10 11 6 0 10 -2 10 -4z m-40 -37 c0 -11
-4 -18 -10 -14 -5 3 -7 12 -3 20 7 21 13 19 13 -6z m-30 -8 c0 -6 -4 -13 -10
-16 -5 -3 -10 1 -10 9 0 9 5 16 10 16 6 0 10 -4 10 -9z m-30 -11 c0 -5 -4 -10
-10 -10 -5 0 -10 5 -10 10 0 6 5 10 10 10 6 0 10 -4 10 -10z m-65 -19 c3 -5 1
-12 -5 -16 -5 -3 -10 1 -10 9 0 18 6 21 15 7z m-70 -11 c3 -5 1 -10 -4 -10 -6
0 -11 5 -11 10 0 6 2 10 4 10 3 0 8 -4 11 -10z m-2788 -32 c-3 -8 -6 -5 -6 6
-1 11 2 17 5 13 3 -3 4 -12 1 -19z m2750 0 c-3 -8 -6 -5 -6 6 -1 11 2 17 5 13
3 -3 4 -12 1 -19z"/>
<path d="M1260 2758 l-25 -11 30 -7 c150 -35 233 -174 195 -330 -18 -75 -95
-153 -168 -169 -68 -14 -97 -14 -150 2 -52 16 -106 57 -133 101 -21 35 -24 21
-8 -39 38 -138 181 -244 332 -246 141 -2 259 71 325 203 33 64 34 69 30 165
-3 92 -5 103 -38 157 -47 78 -82 110 -158 148 -50 24 -80 31 -136 34 -39 1
-82 -2 -96 -8z"/>
<path d="M1135 2687 c-87 -53 -122 -106 -131 -192 -5 -57 13 -101 65 -158 45
-49 96 -70 156 -65 l40 3 -46 27 c-46 27 -61 51 -74 115 -18 92 52 173 151
173 45 0 59 -5 87 -30 19 -16 37 -27 40 -24 3 3 -7 28 -21 56 -38 73 -86 102
-176 105 -44 2 -79 -2 -91 -10z"/>
<path d="M1214 2514 c-34 -35 -38 -47 -34 -93 5 -59 83 -112 142 -98 69 18
104 98 73 166 -20 44 -49 61 -107 61 -34 0 -46 -6 -74 -36z"/>
<path d="M3571 1586 c-52 -17 -76 -56 -75 -124 0 -105 64 -182 151 -182 34 0
46 6 72 35 26 30 31 44 31 86 0 119 -92 215 -179 185z"/>
<path d="M2802 1588 c-7 -7 -12 -44 -12 -90 l0 -78 48 0 c36 0 54 5 67 20 21
23 24 92 5 115 -27 32 -90 51 -108 33z"/>
<path d="M3190 1591 c-24 -7 -25 -11 -28 -89 l-3 -82 43 0 c65 0 88 21 88 79
0 33 -5 53 -17 63 -30 26 -57 35 -83 29z"/>
<path d="M3995 1580 c-10 -11 -15 -36 -15 -73 l0 -57 34 0 c19 0 46 4 60 10
22 8 26 15 26 53 0 49 -18 71 -62 79 -18 3 -33 -1 -43 -12z"/>
</g>
</svg>
